<svg viewBox="0 0 458 131" fill="none" xmlns="http://www.w3.org/2000/svg">
<path d="M23.1 99H12.6C10.3333 99 8.83333 98.6333 8.1 97.9C7.43333 97.1667 7.1 95.6333 7.1 93.3V30.7C7.1 29.5 7.43333 28.5333 8.1 27.8C8.76667 27.0667 9.63333 26.7 10.7 26.7H23.1V99ZM27.1 26.7H39.8C43.6667 26.7 46.7 27 48.9 27.6C51.1667 28.2 52.8667 29.4 54 31.2C55.1333 32.9333 55.8333 34.9 56.1 37.1C56.4333 39.2333 56.6 42.2667 56.6 46.2C56.6 50.1333 56.4333 53.1333 56.1 55.2C55.8333 57.2667 55.1333 59.2 54 61C52.9333 62.8 51.2333 64.0667 48.9 64.8C46.6333 65.5333 43.6 65.9 39.8 65.9H27.1V56.4H34.5C36.2333 56.4 37.3333 56.1667 37.8 55.7C38.3333 55.2333 38.6 54.5 38.6 53.5V39.2C38.6 38.1333 38.3333 37.3667 37.8 36.9C37.3333 36.4333 36.2333 36.2 34.5 36.2H27.1V26.7ZM36.7 69H49.1C51.1 69 52.5333 69.5667 53.4 70.7C54.2667 71.7667 54.7 73.5333 54.7 76V99H40.3C39.2333 99 38.3667 98.6333 37.7 97.9C37.0333 97.1667 36.7 96.2 36.7 95V69ZM86.2141 26.7V86.6C86.2141 87.6 86.4474 88.3333 86.9141 88.8C87.4474 89.2667 88.5807 89.5 90.3141 89.5H97.7141V99H85.0141C82.3474 99 80.1141 98.8 78.3141 98.4C76.5807 98 75.0474 97.2 73.7141 96C72.4474 94.7333 71.4474 93.3333 70.7141 91.8C70.0474 90.2667 69.5141 87.9667 69.1141 84.9C68.5141 80.3 68.2141 74.1333 68.2141 66.4C68.2141 58.6 68.2474 53.1 68.3141 49.9C68.4474 46.7 68.7141 43.6 69.1141 40.6C69.5141 37.5333 70.0474 35.2667 70.7141 33.8C71.4474 32.2667 72.4474 30.9 73.7141 29.7C75.0474 28.4333 76.5807 27.6333 78.3141 27.3C80.1141 26.9 82.3474 26.7 85.0141 26.7H86.2141ZM90.2141 26.8H102.914C105.581 26.8 107.781 27 109.514 27.4C111.314 27.8 112.847 28.6333 114.114 29.9C115.447 31.1 116.447 32.4667 117.114 34C117.847 35.5333 118.414 37.8333 118.814 40.9C119.414 45.5 119.714 51.7 119.714 59.5C119.714 67.2333 119.647 72.7 119.514 75.9C119.447 79.1 119.214 82.2333 118.814 85.3C118.414 88.3 117.847 90.5667 117.114 92.1C116.447 93.5667 115.447 94.9333 114.114 96.2C112.847 97.4 111.314 98.2 109.514 98.6C107.781 98.9333 105.581 99.1 102.914 99.1H101.714V39.2C101.714 38.2 101.447 37.4667 100.914 37C100.447 36.5333 99.3474 36.3 97.6141 36.3H90.2141V26.8ZM150.277 26.7V86.6C150.277 87.6 150.51 88.3333 150.977 88.8C151.51 89.2667 152.643 89.5 154.377 89.5H161.777V99H149.077C146.41 99 144.177 98.8 142.377 98.4C140.643 98 139.11 97.2 137.777 96C136.51 94.7333 135.51 93.3333 134.777 91.8C134.11 90.2667 133.577 87.9667 133.177 84.9C132.577 80.3 132.277 74.1333 132.277 66.4C132.277 58.6 132.31 53.1 132.377 49.9C132.51 46.7 132.777 43.6 133.177 40.6C133.577 37.5333 134.11 35.2667 134.777 33.8C135.51 32.2667 136.51 30.9 137.777 29.7C139.11 28.4333 140.643 27.6333 142.377 27.3C144.177 26.9 146.41 26.7 149.077 26.7H150.277ZM154.277 26.8H166.977C169.643 26.8 171.843 27 173.577 27.4C175.377 27.8 176.91 28.6333 178.177 29.9C179.51 31.1 180.51 32.4667 181.177 34C181.91 35.5333 182.477 37.8333 182.877 40.9C183.477 45.5 183.777 51.7 183.777 59.5C183.777 67.2333 183.71 72.7 183.577 75.9C183.51 79.1 183.277 82.2333 182.877 85.3C182.477 88.3 181.91 90.5667 181.177 92.1C180.51 93.5667 179.51 94.9333 178.177 96.2C176.91 97.4 175.377 98.2 173.577 98.6C171.843 98.9333 169.643 99.1 166.977 99.1H165.777V39.2C165.777 38.2 165.51 37.4667 164.977 37C164.51 36.5333 163.41 36.3 161.677 36.3H154.277V26.8ZM191.758 26.7H223.058C224.124 26.7 224.991 27.0667 225.658 27.8C226.324 28.5333 226.658 29.5 226.658 30.7V99H216.158C213.891 99 212.391 98.6333 211.658 97.9C210.991 97.1667 210.658 95.6333 210.658 93.3V39.2H194.658C192.724 39.2 191.758 37.6 191.758 34.4V26.7ZM230.658 26.7H246.658C248.591 26.7 249.558 28.3 249.558 31.5V39.2H230.658V26.7Z" fill="#D9D9D9"/>
<path d="M216.5 26.7H247.8C248.867 26.7 249.733 27.0667 250.4 27.8C251.067 28.5333 251.4 29.5 251.4 30.7V99H240.9C238.633 99 237.133 98.6333 236.4 97.9C235.733 97.1667 235.4 95.6333 235.4 93.3V39.2H219.4C217.467 39.2 216.5 37.6 216.5 34.4V26.7ZM255.4 26.7H271.4C273.333 26.7 274.3 28.3 274.3 31.5V39.2H255.4V26.7ZM298.233 99H287.733C285.466 99 283.966 98.6333 283.233 97.9C282.566 97.1667 282.233 95.6333 282.233 93.3V30.7C282.233 29.5 282.566 28.5333 283.233 27.8C283.899 27.0667 284.766 26.7 285.833 26.7H298.233V99ZM302.233 26.7H314.933C318.799 26.7 321.833 27 324.033 27.6C326.299 28.2 327.999 29.4 329.133 31.2C330.266 32.9333 330.966 34.9 331.233 37.1C331.566 39.2333 331.733 42.2667 331.733 46.2C331.733 50.1333 331.566 53.1333 331.233 55.2C330.966 57.2667 330.266 59.2 329.133 61C328.066 62.8 326.366 64.0667 324.033 64.8C321.766 65.5333 318.733 65.9 314.933 65.9H302.233V56.4H309.633C311.366 56.4 312.466 56.1667 312.933 55.7C313.466 55.2333 313.733 54.5 313.733 53.5V39.2C313.733 38.1333 313.466 37.3667 312.933 36.9C312.466 36.4333 311.366 36.2 309.633 36.2H302.233V26.7ZM311.833 69H324.233C326.233 69 327.666 69.5667 328.533 70.7C329.399 71.7667 329.833 73.5333 329.833 76V99H315.433C314.366 99 313.499 98.6333 312.833 97.9C312.166 97.1667 311.833 96.2 311.833 95V69ZM360.147 99H349.647C347.38 99 345.88 98.6333 345.147 97.9C344.48 97.1667 344.147 95.6333 344.147 93.3V32.4C344.147 30.0667 344.48 28.5333 345.147 27.8C345.88 27.0667 347.38 26.7 349.647 26.7H360.147V99ZM391.047 85V93.5C391.047 95.7667 390.68 97.2667 389.947 98C389.214 98.6667 387.68 99 385.347 99H364.147V85H391.047ZM385.047 55.5V61.5C385.047 63.9 384.814 65.4333 384.347 66.1C383.88 66.7 382.547 67 380.347 67H364.147V55.5H385.047ZM390.047 26.7V35.2C390.047 37.4667 389.68 38.9667 388.947 39.7C388.214 40.3667 386.68 40.7 384.347 40.7H364.147V26.7H390.047ZM418.057 99H407.557C405.29 99 403.79 98.6333 403.057 97.9C402.39 97.1667 402.057 95.6333 402.057 93.3V32.4C402.057 30.0667 402.39 28.5333 403.057 27.8C403.79 27.0667 405.29 26.7 407.557 26.7H418.057V99ZM448.957 85V93.5C448.957 95.7667 448.59 97.2667 447.857 98C447.124 98.6667 445.59 99 443.257 99H422.057V85H448.957ZM442.957 55.5V61.5C442.957 63.9 442.724 65.4333 442.257 66.1C441.79 66.7 440.457 67 438.257 67H422.057V55.5H442.957ZM447.957 26.7V35.2C447.957 37.4667 447.59 38.9667 446.857 39.7C446.124 40.3667 444.59 40.7 442.257 40.7H422.057V26.7H447.957Z" fill="#3FD526"/>
</svg>
