<svg viewBox="0 0 109 107" fill="none" xmlns="http://www.w3.org/2000/svg">
<circle cx="54.5" cy="25.5" r="2.5" stroke="#AAE3E4" stroke-width="2"/>
<circle cx="38.5" cy="93.5" r="2.5" stroke="#3BBD9E" stroke-width="2"/>
<circle cx="54.5" cy="99.5" r="2.5" stroke="#3BBD9E" stroke-width="2"/>
<circle cx="71.5" cy="93.5" r="2.5" stroke="#3BBD9E" stroke-width="2"/>
<circle cx="71.5" cy="30.5" r="2.5" stroke="#AAE3E4" stroke-width="2"/>
<circle cx="35.5" cy="30.5" r="2.5" stroke="#AAE3E4" stroke-width="2"/>
<circle cx="18.5" cy="26.5" r="2.5" stroke="#3BBD9E" stroke-width="2"/>
<circle cx="15.5" cy="45.5" r="2.5" stroke="#AAE3E4" stroke-width="2"/>
<circle cx="92.5" cy="45.5" r="2.5" stroke="#ABE4E5" stroke-width="2"/>
<circle cx="89.5" cy="26.5" r="2.5" stroke="#3BBD9E" stroke-width="2"/>
<mask id="path-11-inside-1_35_47" fill="white">
<path fill-rule="evenodd" clip-rule="evenodd" d="M69.1341 106.488C68.9334 106.088 69.0927 105.547 69.5203 105.416C91.6124 98.6326 107.419 77.6252 106.76 53.1886C105.97 23.8573 81.7592 0.736668 52.7099 1.51931C23.6606 2.30196 0.729588 26.6927 1.51983 56.024C2.14824 79.3484 17.5869 98.7456 38.4916 105.319C38.8966 105.446 38.9669 106.061 38.6565 106.351V106.351V106.351C38.3629 106.625 37.9436 106.721 37.5615 106.597C16.3018 99.6916 0.661461 79.8594 0.0203756 56.0644C-0.791851 25.9171 22.78 0.825142 52.6695 0.0198583C82.559 -0.785426 107.448 23.0009 108.26 53.1482C108.937 78.2767 92.6728 99.893 69.9296 106.86C69.6125 106.957 69.283 106.784 69.1341 106.488V106.488ZM44.6959 106.985C44.7707 106.983 44.7766 106.871 44.7031 106.858V106.858C44.6444 106.847 44.605 106.917 44.6454 106.961L44.6487 106.965C44.6608 106.978 44.678 106.985 44.6959 106.985V106.985Z"/>
</mask>
<path d="M106.76 53.1886L111.759 53.0539L111.759 53.0539L106.76 53.1886ZM52.7099 1.51931L52.5752 -3.47887L52.5752 -3.47887L52.7099 1.51931ZM1.51983 56.024L-3.47835 56.1586L1.51983 56.024ZM0.0203756 56.0644L-4.97781 56.199L0.0203756 56.0644ZM52.6695 0.0198583L52.5348 -4.97833L52.6695 0.0198583ZM108.26 53.1482L103.262 53.2828L103.262 53.2828L108.26 53.1482ZM44.6487 106.965L40.9647 110.345L44.6487 106.965ZM44.8306 111.983C47.5911 111.909 49.7685 109.611 49.6941 106.85C49.6197 104.09 47.3217 101.912 44.5612 101.987L44.8306 111.983ZM45.6043 101.94C42.8881 101.442 40.2827 103.241 39.785 105.957C39.2872 108.673 41.0856 111.278 43.8018 111.776L45.6043 101.94ZM44.5612 101.987C41.8008 102.061 39.6234 104.359 39.6978 107.12C39.7721 109.88 42.0702 112.057 44.8306 111.983L44.5612 101.987ZM69.5203 105.416L68.0527 100.636L69.5203 105.416ZM64.6659 108.732C65.9052 111.2 68.9103 112.195 71.378 110.956C73.8457 109.717 74.8416 106.712 73.6023 104.244L64.6659 108.732ZM43.8018 111.776C46.518 112.274 49.1234 110.475 49.6212 107.759C50.1189 105.043 48.3205 102.438 45.6043 101.94L43.8018 111.776ZM44.6454 106.961L48.3294 103.581L44.6454 106.961ZM42.0683 110.006C44.0869 108.122 44.1959 104.958 42.3117 102.939C40.4274 100.92 37.2635 100.811 35.2448 102.696L42.0683 110.006ZM37.5615 106.597L39.1061 101.841L37.5615 106.597ZM38.4916 105.319L39.9913 100.549L38.4916 105.319ZM35.2448 102.696C33.2261 104.58 33.1171 107.744 35.0014 109.762C36.8856 111.781 40.0496 111.89 42.0683 110.006L35.2448 102.696ZM69.9296 106.86L68.4651 102.079L69.9296 106.86ZM73.6023 104.244C72.3631 101.776 69.358 100.781 66.8902 102.02C64.4225 103.259 63.4266 106.264 64.6659 108.732L73.6023 104.244ZM111.463 48.5255C111.178 45.7788 108.721 43.7833 105.974 44.0684C103.227 44.3535 101.232 46.8113 101.517 49.558L111.463 48.5255ZM97.679 35.0679C98.7933 37.5945 101.745 38.7395 104.271 37.6252C106.798 36.5109 107.943 33.5594 106.829 31.0327L97.679 35.0679ZM90.4869 9.52398C88.3517 7.77286 85.2013 8.08422 83.4502 10.2194C81.699 12.3546 82.0104 15.5051 84.1456 17.2562L90.4869 9.52398ZM56.607 6.5636C59.3647 6.70616 61.7159 4.58613 61.8584 1.82839C62.001 -0.929351 59.8809 -3.28051 57.1232 -3.42307L56.607 6.5636ZM48.0369 -3.17826C45.2908 -2.88742 43.3004 -0.425521 43.5913 2.32054C43.8821 5.06661 46.344 7.05696 49.0901 6.76612L48.0369 -3.17826ZM34.6615 10.6803C37.1775 9.54229 38.2946 6.58011 37.1566 4.06408C36.0186 1.54805 33.0564 0.430931 30.5404 1.56893L34.6615 10.6803ZM9.21834 18.1765C7.49511 20.3342 7.84736 23.4804 10.0051 25.2036C12.1629 26.9269 15.3091 26.5746 17.0323 24.4168L9.21834 18.1765ZM6.56031 52.1163C6.69711 49.3582 4.57219 47.0115 1.81416 46.8747C-0.943876 46.7379 -3.29061 48.8628 -3.42741 51.6209L6.56031 52.1163ZM-3.27341 59.7438C-3.03243 62.4947 -0.607032 64.5294 2.14386 64.2884C4.89474 64.0474 6.92942 61.622 6.68844 58.8711L-3.27341 59.7438ZM9.16695 70.4954C8.26257 67.8862 5.4143 66.5043 2.80517 67.4087C0.196046 68.3131 -1.18592 71.1613 -0.281531 73.7704L9.16695 70.4954ZM10.3681 92.3947C12.1573 94.4981 15.3129 94.7528 17.4163 92.9637C19.5197 91.1745 19.7744 88.0189 17.9852 85.9155L10.3681 92.3947ZM37.1866 99.5684C34.61 98.5752 31.7161 99.8589 30.723 102.436C29.7298 105.012 31.0135 107.906 33.5902 108.899L37.1866 99.5684ZM36.4332 109.871C38.9352 111.04 41.9108 109.959 43.0794 107.457C44.2481 104.955 43.1672 101.979 40.6653 100.811L36.4332 109.871ZM42.8088 102.598C41.2069 100.349 38.0849 99.824 35.8356 101.426C33.5863 103.028 33.0614 106.15 34.6633 108.399L42.8088 102.598ZM33.853 106.048C33.9643 108.807 36.2913 110.954 39.0504 110.843C41.8096 110.731 43.9562 108.404 43.8449 105.645L33.853 106.048ZM42.499 109.556C44.2939 107.457 44.0477 104.301 41.9492 102.506C39.8507 100.711 36.6944 100.958 34.8995 103.056L42.499 109.556ZM35.3975 102.56C33.2826 104.336 33.0075 107.49 34.7831 109.605C36.5587 111.72 39.7125 111.995 41.8274 110.219L35.3975 102.56ZM40.7589 110.939C43.1988 109.646 44.1286 106.62 42.8355 104.18C41.5425 101.74 38.5163 100.81 36.0763 102.103L40.7589 110.939ZM37.2419 101.706C34.52 102.172 32.6908 104.755 33.1563 107.477C33.6218 110.199 36.2057 112.028 38.9276 111.563L37.2419 101.706ZM36.3315 111.445C39 112.156 41.7391 110.568 42.4497 107.9C43.1602 105.232 41.5729 102.492 38.9045 101.782L36.3315 111.445ZM36.2444 100.812C33.6767 99.7955 30.7715 101.053 29.7554 103.621C28.7394 106.189 29.9972 109.094 32.5649 110.11L36.2444 100.812ZM19.741 103.081C21.9798 104.697 25.1052 104.193 26.7218 101.954C28.3384 99.7156 27.8341 96.5902 25.5954 94.9736L19.741 103.081ZM13.0513 81.8067C11.5441 79.4929 8.44655 78.839 6.13272 80.3462C3.81888 81.8534 3.16497 84.9509 4.67216 87.2648L13.0513 81.8067ZM-4.76989 59.8498C-4.53006 62.6008 -2.10552 64.6365 0.645467 64.3967C3.39646 64.1569 5.43216 61.7323 5.19233 58.9813L-4.76989 59.8498ZM5.06227 52.039C5.1992 49.281 3.07438 46.9342 0.316355 46.7973C-2.44167 46.6603 -4.7885 48.7851 -4.92543 51.5432L5.06227 52.039ZM-1.14175 33.3667C-2.11873 35.9496 -0.816932 38.8354 1.76589 39.8123C4.34871 40.7893 7.2345 39.4875 8.21148 36.9047L-1.14175 33.3667ZM21.1621 17.8123C23.2001 15.9491 23.3419 12.7864 21.4786 10.7483C19.6154 8.71023 16.4528 8.56849 14.4147 10.4317L21.1621 17.8123ZM47.879 -4.67006C45.133 -4.37934 43.1425 -1.91754 43.4332 0.828538C43.7239 3.57462 46.1857 5.56509 48.9318 5.27438L47.879 -4.67006ZM56.6847 5.0655C59.4424 5.20792 61.7935 3.08778 61.9359 0.330037C62.0784 -2.42771 59.9582 -4.77877 57.2005 -4.92119L56.6847 5.0655ZM75.386 -1.02668C72.8122 -2.02719 69.9146 -0.751791 68.9141 1.82201C67.9136 4.39581 69.189 7.29336 71.7628 8.29387L75.386 -1.02668ZM90.6829 21.4585C92.5202 23.5201 95.6807 23.702 97.7423 21.8647C99.8039 20.0275 99.9858 16.8669 98.1485 14.8054L90.6829 21.4585ZM112.955 48.3672C112.67 45.6206 110.212 43.6252 107.465 43.9104C104.719 44.1957 102.723 46.6535 103.009 49.4002L112.955 48.3672ZM103.247 56.5112C103.146 59.2707 105.301 61.5895 108.061 61.6902C110.82 61.7909 113.139 59.6355 113.24 56.8759L103.247 56.5112ZM110.702 72.0869C111.505 69.4447 110.013 66.6522 107.371 65.8496C104.729 65.0471 101.936 66.5384 101.134 69.1807L110.702 72.0869ZM92.1074 86.1191C90.3628 88.2596 90.6836 91.4091 92.8241 93.1538C94.9645 94.8985 98.1141 94.5776 99.8587 92.4372L92.1074 86.1191ZM75.0603 110.383C77.6411 109.401 78.937 106.512 77.9548 103.932C76.9725 101.351 74.0841 100.055 71.5033 101.037L75.0603 110.383ZM68.7885 101.994C66.0941 102.598 64.4001 105.273 65.0048 107.967C65.6095 110.662 68.284 112.356 70.9784 111.751L68.7885 101.994ZM69.2458 111.865C71.9961 112.112 74.4262 110.083 74.6736 107.333C74.9211 104.582 72.892 102.152 70.1417 101.905L69.2458 111.865ZM71.9304 102.471C69.5412 101.087 66.4819 101.901 65.0973 104.29C63.7127 106.68 64.5271 109.739 66.9163 111.124L71.9304 102.471ZM64.8383 109.05C66.23 111.435 69.2917 112.24 71.6768 110.849C74.0619 109.457 74.8671 106.395 73.4754 104.01L64.8383 109.05ZM73.7446 104.559C72.7117 101.998 69.7983 100.759 67.2373 101.792C64.6764 102.825 63.4376 105.739 64.4705 108.299L73.7446 104.559ZM64.0627 106.531C64.2574 109.286 66.6483 111.361 69.4029 111.166C72.1574 110.972 74.2325 108.581 74.0378 105.826L64.0627 106.531ZM73.7249 107.726C74.7888 105.178 73.5854 102.25 71.0372 101.186C68.4889 100.122 65.5607 101.326 64.4968 103.874L73.7249 107.726ZM67.5092 100.834C64.9665 101.911 63.7785 104.846 64.8557 107.388C65.9329 109.931 68.8674 111.119 71.4101 110.042L67.5092 100.834ZM74.5594 108.968C77.1396 107.984 78.4337 105.095 77.4498 102.515C76.4659 99.9344 73.5766 98.6403 70.9964 99.6242L74.5594 108.968ZM81.92 93.7074C79.6851 95.3292 79.188 98.4558 80.8099 100.691C82.4317 102.926 85.5583 103.423 87.7932 101.801L81.92 93.7074ZM103.081 85.3353C104.534 82.9871 103.808 79.9056 101.46 78.4525C99.1114 76.9995 96.0299 77.7252 94.5769 80.0734L103.081 85.3353ZM101.748 56.4527C101.647 59.2123 103.803 61.5309 106.562 61.6314C109.322 61.732 111.641 59.5764 111.741 56.8168L101.748 56.4527ZM48.3326 103.584C46.4656 101.55 43.3026 101.414 41.268 103.281C39.2334 105.148 39.0975 108.311 40.9645 110.345L48.3326 103.584ZM40.9639 110.345C42.8309 112.379 45.9938 112.515 48.0284 110.648C50.063 108.781 50.1989 105.618 48.3319 103.583L40.9639 110.345ZM48.3309 103.582C46.4639 101.548 43.301 101.412 41.2663 103.279C39.2317 105.146 39.0958 108.309 40.9629 110.343L48.3309 103.582ZM40.9615 110.342C42.8285 112.377 45.9914 112.512 48.0261 110.645C50.0607 108.778 50.1966 105.616 48.3296 103.581L40.9615 110.342ZM48.6915 104.025C47.073 101.787 43.9471 101.286 41.7098 102.904C39.4724 104.523 38.9708 107.648 40.5893 109.886L48.6915 104.025ZM39.6591 107.472C39.9603 110.217 42.4297 112.198 45.1746 111.897C47.9196 111.595 49.9006 109.126 49.5994 106.381L39.6591 107.472ZM48.6775 109.834C50.3074 107.605 49.8217 104.476 47.5926 102.846C45.3635 101.216 42.2351 101.702 40.6052 103.931L48.6775 109.834ZM45.0244 101.868C42.2689 101.686 39.8879 103.772 39.7062 106.528C39.5244 109.283 41.6108 111.664 44.3663 111.846L45.0244 101.868ZM43.1756 111.618C45.8034 112.467 48.6216 111.025 49.4702 108.397C50.3188 105.769 48.8765 102.951 46.2486 102.102L43.1756 111.618ZM48.7344 103.871C47.0719 101.666 43.9368 101.227 41.7319 102.889C39.527 104.552 39.0873 107.687 40.7498 109.892L48.7344 103.871ZM39.8322 106.054C39.3461 108.773 41.1556 111.37 43.874 111.856C46.5923 112.342 49.1899 110.533 49.676 107.815L39.8322 106.054ZM45.5019 111.92C48.228 111.48 50.0813 108.914 49.6414 106.187C49.2014 103.461 46.6348 101.608 43.9086 102.048L45.5019 111.92ZM44.7722 101.986C42.0111 101.942 39.7375 104.145 39.6939 106.906C39.6504 109.667 41.8533 111.941 44.6144 111.984L44.7722 101.986ZM43.7537 111.897C46.4671 112.41 49.0826 110.626 49.5957 107.913C50.1088 105.2 48.3252 102.584 45.6118 102.071L43.7537 111.897ZM46.813 102.463C44.3186 101.278 41.3361 102.339 40.1513 104.834C38.9666 107.328 40.0282 110.311 42.5225 111.495L46.813 102.463ZM41.1142 110.502C43.0664 112.455 46.2323 112.455 48.1853 110.503C50.1384 108.551 50.139 105.385 48.1868 103.432L41.1142 110.502ZM111.759 53.0539C111.718 51.5293 111.619 50.0191 111.463 48.5255L101.517 49.558C101.646 50.7982 101.728 52.0538 101.762 53.3232L111.759 53.0539ZM106.829 31.0327C103.112 22.6046 97.4722 15.2527 90.4869 9.52398L84.1456 17.2562C89.9312 22.0011 94.6022 28.0913 97.679 35.0679L106.829 31.0327ZM57.1232 -3.42307C55.62 -3.50077 54.1033 -3.52004 52.5752 -3.47887L52.8446 6.5175C54.1104 6.4834 55.3651 6.49941 56.607 6.5636L57.1232 -3.42307ZM52.5752 -3.47887C51.0472 -3.4377 49.5337 -3.33679 48.0369 -3.17826L49.0901 6.76612C50.3267 6.63515 51.5787 6.5516 52.8446 6.5175L52.5752 -3.47887ZM30.5404 1.56893C22.1671 5.35616 14.8783 11.0893 9.21834 18.1765L17.0323 24.4168C21.7238 18.5424 27.7551 13.804 34.6615 10.6803L30.5404 1.56893ZM-3.42741 51.6209C-3.5018 53.1207 -3.51943 54.634 -3.47835 56.1586L6.51802 55.8893C6.48382 54.6199 6.49854 53.3616 6.56031 52.1163L-3.42741 51.6209ZM-3.47835 56.1586C-3.44591 57.363 -3.37726 58.5584 -3.27341 59.7438L6.68844 58.8711C6.60217 57.8863 6.54504 56.8921 6.51802 55.8893L-3.47835 56.1586ZM-0.281531 73.7704C2.11195 80.6756 5.75604 86.9727 10.3681 92.3947L17.9852 85.9155C14.164 81.4232 11.1475 76.2091 9.16695 70.4954L-0.281531 73.7704ZM33.5902 108.899C34.708 109.33 35.8423 109.727 36.9919 110.088L39.9913 100.549C39.0438 100.251 38.1085 99.9237 37.1866 99.5684L33.5902 108.899ZM36.9919 110.088C36.8017 110.029 36.615 109.956 36.4332 109.871L40.6653 100.811C40.4467 100.709 40.2216 100.621 39.9913 100.549L36.9919 110.088ZM34.6633 108.399C34.0928 107.598 33.8813 106.75 33.853 106.048L43.8449 105.645C43.8063 104.69 43.5187 103.595 42.8088 102.598L34.6633 108.399ZM34.8995 103.056C35.0054 102.932 35.1204 102.812 35.2448 102.696L42.0683 110.006C42.223 109.861 42.3665 109.711 42.499 109.556L34.8995 103.056ZM35.2448 102.696C35.2946 102.649 35.3455 102.604 35.3975 102.56L41.8274 110.219C41.9094 110.15 41.9897 110.079 42.0683 110.006L35.2448 102.696ZM36.0763 102.103C36.4412 101.91 36.8346 101.776 37.2419 101.706L38.9276 111.563C39.5663 111.454 40.1847 111.243 40.7589 110.939L36.0763 102.103ZM38.9045 101.782C38.9721 101.8 39.0393 101.82 39.1061 101.841L36.017 111.352C36.1212 111.386 36.2261 111.417 36.3315 111.445L38.9045 101.782ZM39.1061 101.841C38.1391 101.527 37.1849 101.184 36.2444 100.812L32.5649 110.11C33.6991 110.559 34.8503 110.973 36.017 111.352L39.1061 101.841ZM25.5954 94.9736C20.66 91.4096 16.3972 86.9434 13.0513 81.8067L4.67216 87.2648C8.68992 93.4328 13.8088 98.797 19.741 103.081L25.5954 94.9736ZM5.19233 58.9813C5.10446 57.9734 5.04621 56.9559 5.01856 55.9297L-4.97781 56.199C-4.94477 57.4254 -4.87512 58.6427 -4.76989 59.8498L5.19233 58.9813ZM5.01856 55.9297C4.9833 54.6208 4.99851 53.3233 5.06227 52.039L-4.92543 51.5432C-5.00183 53.082 -5.01996 54.6348 -4.97781 56.199L5.01856 55.9297ZM8.21148 36.9047C10.9932 29.5506 15.466 23.0197 21.1621 17.8123L14.4147 10.4317C7.5733 16.6862 2.20122 24.529 -1.14175 33.3667L8.21148 36.9047ZM48.9318 5.27438C50.2072 5.13936 51.4985 5.05322 52.8042 5.01804L52.5348 -4.97833C50.9672 -4.93609 49.4145 -4.83261 47.879 -4.67006L48.9318 5.27438ZM52.8042 5.01804C54.1098 4.98287 55.4039 4.99935 56.6847 5.0655L57.2005 -4.92119C55.6585 -5.00083 54.1025 -5.02056 52.5348 -4.97833L52.8042 5.01804ZM71.7628 8.29387C79.0505 11.1268 85.5253 15.671 90.6829 21.4585L98.1485 14.8054C91.9584 7.85936 84.1745 2.38965 75.386 -1.02668L71.7628 8.29387ZM103.009 49.4002C103.141 50.6791 103.226 51.9739 103.262 53.2828L113.258 53.0135C113.216 51.4493 113.114 49.8997 112.955 48.3672L103.009 49.4002ZM103.262 53.2828C103.291 54.3671 103.286 55.4436 103.247 56.5112L113.24 56.8759C113.287 55.5972 113.293 54.3093 113.258 53.0135L103.262 53.2828ZM101.134 69.1807C99.2347 75.4335 96.1388 81.1733 92.1074 86.1191L99.8587 92.4372C104.699 86.4991 108.419 79.6041 110.702 72.0869L101.134 69.1807ZM71.5033 101.037C70.5059 101.417 69.4928 101.765 68.4651 102.079L71.3941 111.641C72.6343 111.261 73.8569 110.841 75.0603 110.383L71.5033 101.037ZM68.4651 102.079C68.5716 102.047 68.6795 102.018 68.7885 101.994L70.9784 111.751C71.1182 111.72 71.2569 111.683 71.3941 111.641L68.4651 102.079ZM70.1417 101.905C70.8157 101.965 71.4219 102.177 71.9304 102.471L66.9163 111.124C67.591 111.515 68.3812 111.787 69.2458 111.865L70.1417 101.905ZM73.4754 104.01C73.52 104.087 73.5624 104.165 73.6023 104.244L64.6659 108.732C64.7202 108.84 64.7777 108.946 64.8383 109.05L73.4754 104.01ZM73.6023 104.244C73.6548 104.349 73.7022 104.454 73.7446 104.559L64.4705 108.299C64.529 108.444 64.594 108.589 64.6659 108.732L73.6023 104.244ZM74.0378 105.826C74.0818 106.45 73.986 107.101 73.7249 107.726L64.4968 103.874C64.1381 104.733 64.0001 105.647 64.0627 106.531L74.0378 105.826ZM71.4101 110.042C71.2717 110.101 71.1308 110.152 70.9879 110.196L68.0527 100.636C67.8681 100.693 67.6867 100.759 67.5092 100.834L71.4101 110.042ZM70.9879 110.196C72.196 109.825 73.387 109.415 74.5594 108.968L70.9964 99.6242C70.03 99.9927 69.0484 100.33 68.0527 100.636L70.9879 110.196ZM87.7932 101.801C93.8988 97.3704 99.0988 91.7701 103.081 85.3353L94.5769 80.0734C91.2776 85.4053 86.9701 90.0428 81.92 93.7074L87.7932 101.801ZM111.741 56.8168C111.786 55.5711 111.793 54.3163 111.759 53.0539L101.762 53.3232C101.791 54.3744 101.785 55.4179 101.748 56.4527L111.741 56.8168ZM48.3327 103.584L48.3326 103.584L40.9645 110.345L40.9647 110.345L48.3327 103.584ZM48.3319 103.583L48.3309 103.582L40.9629 110.343L40.9639 110.345L48.3319 103.583ZM48.3296 103.581L48.3294 103.581L40.9613 110.342L40.9615 110.342L48.3296 103.581ZM48.3294 103.581C48.4567 103.719 48.5779 103.867 48.6915 104.025L40.5893 109.886C40.706 110.047 40.8304 110.199 40.9613 110.342L48.3294 103.581ZM49.5994 106.381C49.7429 107.689 49.3551 108.907 48.6775 109.834L40.6052 103.931C39.9092 104.883 39.5121 106.133 39.6591 107.472L49.5994 106.381ZM44.3663 111.846C44.1744 111.834 43.986 111.81 43.8018 111.776L45.6043 101.94C45.4149 101.905 45.2213 101.881 45.0244 101.868L44.3663 111.846ZM43.8018 111.776C43.5953 111.738 43.3859 111.686 43.1756 111.618L46.2486 102.102C46.0327 102.032 45.8172 101.979 45.6043 101.94L43.8018 111.776ZM40.7498 109.892C39.8363 108.68 39.6172 107.256 39.8322 106.054L49.676 107.815C49.8975 106.576 49.6707 105.113 48.7344 103.871L40.7498 109.892ZM43.9086 102.048C44.1314 102.012 44.3496 101.992 44.5612 101.987L44.8306 111.983C45.0488 111.977 45.2732 111.957 45.5019 111.92L43.9086 102.048ZM44.5612 101.987C44.6316 101.985 44.702 101.984 44.7722 101.986L44.6144 111.984C44.6864 111.985 44.7585 111.985 44.8306 111.983L44.5612 101.987ZM45.6118 102.071C46.0287 102.15 46.4322 102.282 46.813 102.463L42.5225 111.495C42.9128 111.681 43.3265 111.816 43.7537 111.897L45.6118 102.071ZM48.1868 103.432C48.2365 103.482 48.2851 103.532 48.3327 103.584L40.9647 110.345C41.0135 110.399 41.0634 110.451 41.1142 110.502L48.1868 103.432ZM106.76 53.1886L116.757 52.9193L116.757 52.9193L106.76 53.1886ZM52.7099 1.51931L52.4406 -8.47706L52.4406 -8.47706L52.7099 1.51931ZM1.51983 56.024L-8.47654 56.2933L1.51983 56.024ZM0.0203756 56.0644L-9.976 56.3337L0.0203756 56.0644ZM52.6695 0.0198583L52.4002 -9.97651L52.6695 0.0198583ZM108.26 53.1482L98.2636 53.4175L98.2636 53.4175L108.26 53.1482ZM44.6487 106.965L37.2807 113.726L44.6487 106.965ZM44.9653 116.981C50.4862 116.832 54.8411 112.236 54.6923 106.716C54.5435 101.195 49.9474 96.8397 44.4266 96.9885L44.9653 116.981ZM46.5056 97.0218C41.0732 96.0263 35.8624 99.6231 34.8669 105.055C33.8714 110.488 37.4682 115.699 42.9006 116.694L46.5056 97.0218ZM44.4266 96.9885C38.9057 97.1373 34.5508 101.733 34.6996 107.254C34.8483 112.775 39.4445 117.13 44.9653 116.981L44.4266 96.9885ZM69.5203 105.416L66.5851 95.8564L69.5203 105.416ZM60.1977 110.976C62.6762 115.911 68.6864 117.903 73.6219 115.424C78.5573 112.946 80.5491 106.936 78.0706 102L60.1977 110.976ZM42.9006 116.694C48.3329 117.69 53.5438 114.093 54.5393 108.66C55.5348 103.228 51.938 98.0173 46.5056 97.0218L42.9006 116.694ZM44.6454 106.961L52.0134 100.2L44.6454 106.961ZM45.48 113.661C49.5174 109.892 49.7353 103.565 45.9668 99.5272C42.1983 95.4899 35.8704 95.2719 31.833 99.0405L45.48 113.661ZM37.5615 106.597L40.6507 97.086L37.5615 106.597ZM38.4916 105.319L41.4911 95.779L38.4916 105.319ZM31.8331 99.0404C27.7957 102.809 27.5777 109.137 31.3462 113.174C35.1147 117.212 41.4426 117.43 45.48 113.661L31.8331 99.0404ZM69.9296 106.86L67.0006 97.2986L69.9296 106.86ZM78.0706 102C75.592 97.0648 69.5818 95.073 64.6463 97.5516C59.7109 100.03 57.7191 106.04 60.1977 110.976L78.0706 102ZM116.437 48.0092C115.867 42.5159 110.951 38.5249 105.458 39.0952C99.9644 39.6654 95.9734 44.5809 96.5436 50.0742L116.437 48.0092ZM93.1041 37.0855C95.3327 42.1388 101.236 44.4286 106.289 42.2C111.342 39.9715 113.632 34.0684 111.404 29.0151L93.1041 37.0855ZM93.6576 5.65786C89.3872 2.15563 83.0863 2.77836 79.584 7.04875C76.0818 11.3191 76.7045 17.6201 80.9749 21.1223L93.6576 5.65786ZM56.3488 11.5569C61.8643 11.842 66.5666 7.602 66.8517 2.08651C67.1369 -3.42897 62.8968 -8.13128 57.3813 -8.4164L56.3488 11.5569ZM47.5102 -8.15045C42.0181 -7.56877 38.0374 -2.64497 38.6191 2.84716C39.2008 8.33929 44.1246 12.32 49.6167 11.7383L47.5102 -8.15045ZM36.722 15.236C41.7541 12.96 43.9883 7.03561 41.7123 2.00355C39.4363 -3.02852 33.5119 -5.26275 28.4799 -2.98675L36.722 15.236ZM5.31137 15.0563C1.8649 19.3718 2.56941 25.6641 6.88494 29.1106C11.2005 32.5571 17.4928 31.8526 20.9393 27.537L5.31137 15.0563ZM11.5542 52.364C11.8278 46.8479 7.57793 42.1545 2.06186 41.8808C-3.4542 41.6072 -8.14766 45.8571 -8.42127 51.3732L11.5542 52.364ZM-8.25434 60.1802C-7.77236 65.6819 -2.92157 69.7513 2.5802 69.2693C8.08198 68.7873 12.1513 63.9366 11.6694 58.4348L-8.25434 60.1802ZM13.8912 68.8578C12.0824 63.6396 6.38589 60.8756 1.16764 62.6844C-4.05062 64.4932 -6.81455 70.1897 -5.00577 75.408L13.8912 68.8578ZM6.5596 95.6343C10.138 99.8411 16.4491 100.351 20.6559 96.7722C24.8627 93.1938 25.3721 86.8827 21.7938 82.6759L6.5596 95.6343ZM38.9849 94.9029C33.8316 92.9166 28.0438 95.484 26.0575 100.637C24.0712 105.791 26.6386 111.578 31.7919 113.565L38.9849 94.9029ZM34.3172 114.401C39.3211 116.739 45.2723 114.577 47.6096 109.573C49.9469 104.569 47.7852 98.6179 42.7813 96.2806L34.3172 114.401ZM46.8816 99.6977C43.6778 95.1991 37.4338 94.1493 32.9352 97.3531C28.4365 100.557 27.3868 106.801 30.5905 111.299L46.8816 99.6977ZM28.8571 106.25C29.0796 111.768 33.7336 116.061 39.2519 115.838C44.7703 115.616 49.0634 110.962 48.8408 105.444L28.8571 106.25ZM46.2987 112.806C49.8885 108.609 49.3962 102.296 45.1991 98.7066C41.0021 95.1168 34.6896 95.6091 31.0998 99.8062L46.2987 112.806ZM32.1825 98.731C27.9527 102.282 27.4026 108.59 30.9537 112.82C34.5049 117.049 40.8126 117.6 45.0424 114.048L32.1825 98.731ZM43.1002 115.357C47.9801 112.771 49.8396 106.718 47.2535 101.838C44.6674 96.9585 38.615 95.099 33.735 97.6851L43.1002 115.357ZM36.3991 96.7776C30.9553 97.7085 27.2969 102.876 28.2278 108.32C29.1588 113.764 34.3266 117.422 39.7704 116.491L36.3991 96.7776ZM35.045 116.277C40.3819 117.698 45.8603 114.523 47.2813 109.187C48.7023 103.85 45.5279 98.3712 40.191 96.9502L35.045 116.277ZM38.0841 96.1623C32.9487 94.1302 27.1383 96.646 25.1062 101.781C23.0741 106.917 25.5898 112.727 30.7252 114.759L38.0841 96.1623ZM16.8138 107.134C21.2913 110.368 27.5421 109.359 30.7754 104.882C34.0087 100.404 33 94.1533 28.5226 90.92L16.8138 107.134ZM17.2409 79.0777C14.2265 74.4501 8.03138 73.1422 3.40371 76.1566C-1.22397 79.171 -2.5318 85.3661 0.482587 89.9938L17.2409 79.0777ZM-9.75099 60.2841C-9.27134 65.786 -4.42227 69.8574 1.07971 69.3778C6.58169 68.8981 10.6531 64.0491 10.1734 58.5471L-9.75099 60.2841ZM10.0561 52.287C10.33 46.7709 6.08035 42.0773 0.564293 41.8034C-4.95176 41.5295 -9.64542 45.7792 -9.91928 51.2952L10.0561 52.287ZM-5.81836 31.5978C-7.77232 36.7634 -5.16873 42.535 -0.0030848 44.4889C5.16256 46.4429 10.9341 43.8393 12.8881 38.6737L-5.81836 31.5978ZM24.5358 21.5026C28.6119 17.7761 28.8954 11.4508 25.1689 7.37463C21.4425 3.29845 15.1172 3.01497 11.041 6.74145L24.5358 21.5026ZM47.3527 -9.64227C41.8605 -9.06085 37.8796 -4.13724 38.461 1.35492C39.0424 6.84707 43.966 10.828 49.4582 10.2466L47.3527 -9.64227ZM56.4268 10.0588C61.9423 10.3437 66.6444 6.10342 66.9293 0.587922C67.2141 -4.92758 62.9739 -9.62969 57.4584 -9.91454L56.4268 10.0588ZM77.1976 -5.68696C72.05 -7.68798 66.2549 -5.13717 64.2538 0.010424C62.2528 5.15802 64.8036 10.9531 69.9512 12.9541L77.1976 -5.68696ZM86.9501 24.7851C90.6246 28.9083 96.9458 29.272 101.069 25.5976C105.192 21.9231 105.556 15.6019 101.881 11.4788L86.9501 24.7851ZM117.928 47.8508C117.358 42.3575 112.442 38.3667 106.949 38.9372C101.456 39.5077 97.4649 44.4233 98.0354 49.9166L117.928 47.8508ZM98.2499 56.3288C98.0485 61.8479 102.359 66.4854 107.878 66.6869C113.398 66.8883 118.035 62.5775 118.237 57.0583L98.2499 56.3288ZM115.486 73.5401C117.092 68.2556 114.109 62.6705 108.824 61.0654C103.54 59.4604 97.9548 62.4431 96.3497 67.7275L115.486 73.5401ZM88.2318 82.9601C84.7424 87.241 85.3841 93.5401 89.6651 97.0294C93.946 100.519 100.245 99.8771 103.734 95.5962L88.2318 82.9601ZM76.8388 115.056C82.0005 113.092 84.5923 107.315 82.6278 102.153C80.6633 96.9914 74.8864 94.3996 69.7248 96.3641L76.8388 115.056ZM67.6936 97.115C62.3048 98.3244 58.9168 103.673 60.1262 109.062C61.3356 114.451 66.6846 117.839 72.0733 116.63L67.6936 97.115ZM68.7978 116.844C74.2984 117.339 79.1587 113.281 79.6535 107.781C80.1484 102.28 76.0903 97.4197 70.5897 96.9249L68.7978 116.844ZM74.4374 98.1454C69.659 95.3762 63.5404 97.005 60.7712 101.783C58.002 106.562 59.6308 112.68 64.4093 115.45L74.4374 98.1454ZM60.5197 111.57C63.3032 116.34 69.4265 117.951 74.1967 115.167C78.9669 112.384 80.5774 106.26 77.794 101.49L60.5197 111.57ZM78.3817 102.689C76.3158 97.5668 70.489 95.0893 65.3671 97.1551C60.2451 99.221 57.7677 105.048 59.8335 110.17L78.3817 102.689ZM59.0751 106.884C59.4647 112.393 64.2464 116.543 69.7555 116.154C75.2646 115.764 79.4148 110.983 79.0253 105.474L59.0751 106.884ZM78.339 109.653C80.4667 104.556 78.06 98.6998 72.9634 96.5721C67.8669 94.4444 62.0105 96.8511 59.8828 101.948L78.339 109.653ZM65.5588 96.2302C60.4734 98.3846 58.0975 104.254 60.2518 109.339C62.4062 114.424 68.2752 116.8 73.3605 114.646L65.5588 96.2302ZM76.3409 113.64C81.5013 111.672 84.0894 105.893 82.1216 100.733C80.1539 95.5727 74.3754 92.9846 69.215 94.9523L76.3409 113.64ZM78.9834 89.6606C74.5135 92.9043 73.5194 99.1574 76.7631 103.627C80.0068 108.097 86.2599 109.091 90.7299 105.848L78.9834 89.6606ZM107.332 87.9663C110.238 83.2698 108.787 77.1068 104.091 74.2007C99.3942 71.2946 93.2311 72.746 90.325 77.4424L107.332 87.9663ZM96.751 56.2706C96.5499 61.7898 100.861 66.427 106.38 66.6281C111.899 66.8292 116.537 62.5181 116.738 56.9989L96.751 56.2706ZM52.0166 100.204C48.2826 96.1344 41.9568 95.8626 37.8875 99.5967C33.8182 103.331 33.5465 109.657 37.2805 113.726L52.0166 100.204ZM37.2798 113.725C41.0139 117.794 47.3397 118.066 51.4089 114.332C55.4782 110.598 55.75 104.272 52.0159 100.203L37.2798 113.725ZM52.0149 100.202C48.2809 96.1326 41.9551 95.8608 37.8858 99.5948C33.8166 103.329 33.5448 109.655 37.2788 113.724L52.0149 100.202ZM37.2775 113.722C41.0115 117.792 47.3373 118.064 51.4066 114.329C55.4759 110.595 55.7476 104.27 52.0136 100.2L37.2775 113.722ZM52.7426 101.094C49.5055 96.6192 43.2538 95.6159 38.7791 98.853C34.3044 102.09 33.3012 108.342 36.5383 112.816L52.7426 101.094ZM34.6889 108.017C35.2913 113.507 40.2301 117.469 45.72 116.867C51.2099 116.264 55.172 111.326 54.5696 105.836L34.6889 108.017ZM52.7136 112.785C55.9734 108.327 55.002 102.07 50.5438 98.8102C46.0856 95.5504 39.8289 96.5218 36.5691 100.98L52.7136 112.785ZM45.3534 96.8787C39.8426 96.5152 35.0805 100.688 34.717 106.199C34.3535 111.71 38.5263 116.472 44.0372 116.835L45.3534 96.8787ZM41.6391 116.376C46.8947 118.074 52.5311 115.189 54.2283 109.933C55.9254 104.678 53.0408 99.0413 47.7851 97.3441L41.6391 116.376ZM52.7268 100.861C49.4018 96.4511 43.1315 95.5717 38.7217 98.8967C34.3119 102.222 33.4325 108.492 36.7575 112.902L52.7268 100.861ZM34.9102 105.174C33.9381 110.611 37.5572 115.806 42.9938 116.778C48.4304 117.75 53.6258 114.131 54.5979 108.695L34.9102 105.174ZM46.2985 116.856C51.7508 115.976 55.4574 110.843 54.5775 105.391C53.6976 99.9385 48.5643 96.2318 43.112 97.1118L46.2985 116.856ZM44.8511 96.9862C39.3289 96.899 34.7817 101.305 34.6945 106.827C34.6074 112.349 39.0134 116.897 44.5355 116.984L44.8511 96.9862ZM42.8247 116.81C48.2513 117.836 53.4824 114.269 54.5086 108.842C55.5348 103.415 51.9676 98.1842 46.5409 97.158L42.8247 116.81ZM48.9582 97.9461C43.9695 95.5766 38.0045 97.6998 35.6349 102.688C33.2654 107.677 35.3886 113.642 40.3773 116.012L48.9582 97.9461ZM37.578 114.036C41.4824 117.942 47.814 117.944 51.7201 114.039C55.6262 110.135 55.6275 103.803 51.7231 99.8973L37.578 114.036ZM116.757 52.9193C116.712 51.2671 116.605 49.6296 116.437 48.0092L96.5436 50.0742C96.6592 51.1877 96.7334 52.3161 96.7641 53.4579L116.757 52.9193ZM111.404 29.0151C107.367 19.8613 101.243 11.8785 93.6576 5.65786L80.9749 21.1223C86.1607 25.3752 90.3474 30.8346 93.1041 37.0855L111.404 29.0151ZM57.3813 -8.4164C55.7475 -8.50086 54.0997 -8.52176 52.4406 -8.47706L52.9792 11.5157C54.114 11.4851 55.2377 11.4995 56.3488 11.5569L57.3813 -8.4164ZM52.4406 -8.47706C50.7814 -8.43236 49.1372 -8.32276 47.5102 -8.15045L49.6167 11.7383C50.7232 11.6211 51.8445 11.5463 52.9792 11.5157L52.4406 -8.47706ZM28.4799 -2.98675C19.3731 1.13223 11.4556 7.36276 5.31137 15.0563L20.9393 27.537C25.1465 22.2689 30.5491 18.0279 36.722 15.236L28.4799 -2.98675ZM-8.42127 51.3732C-8.50198 53.0002 -8.52105 54.6411 -8.47654 56.2933L11.5162 55.7546C11.4854 54.6128 11.4987 53.4821 11.5542 52.364L-8.42127 51.3732ZM-8.47654 56.2933C-8.44138 57.5985 -8.36697 58.8945 -8.25434 60.1802L11.6694 58.4348C11.5919 57.5503 11.5405 56.6567 11.5162 55.7546L-8.47654 56.2933ZM-5.00577 75.408C-2.40581 82.9088 1.55208 89.7474 6.5596 95.6343L21.7938 82.6759C18.3679 78.6485 15.6652 73.9758 13.8912 68.8578L-5.00577 75.408ZM31.7919 113.565C33.0077 114.033 34.2416 114.465 35.4921 114.858L41.4911 95.779C40.6445 95.5128 39.8088 95.2205 38.9849 94.9029L31.7919 113.565ZM35.4921 114.858C35.0917 114.732 34.6991 114.58 34.3172 114.401L42.7813 96.2806C42.3626 96.085 41.9316 95.9175 41.4911 95.779L35.4921 114.858ZM30.5905 111.299C29.3799 109.6 28.9188 107.78 28.8571 106.25L48.8408 105.444C48.7689 103.66 48.2317 101.594 46.8816 99.6977L30.5905 111.299ZM31.0998 99.8062C31.3248 99.5431 31.5691 99.2868 31.8331 99.0404L45.48 113.661C45.7743 113.386 46.047 113.1 46.2987 112.806L31.0998 99.8062ZM31.833 99.0405C31.947 98.9341 32.0636 98.8309 32.1825 98.731L45.0424 114.048C45.1913 113.923 45.3373 113.794 45.48 113.661L31.833 99.0405ZM33.735 97.6851C34.5695 97.2429 35.4688 96.9367 36.3991 96.7776L39.7704 116.491C40.9322 116.293 42.0564 115.91 43.1002 115.357L33.735 97.6851ZM40.191 96.9502C40.3451 96.9912 40.4984 97.0365 40.6507 97.086L34.4724 116.108C34.6622 116.169 34.8531 116.226 35.045 116.277L40.191 96.9502ZM40.6507 97.086C39.7836 96.8043 38.9277 96.4961 38.0841 96.1623L30.7252 114.759C31.9563 115.246 33.2058 115.696 34.4724 116.108L40.6507 97.086ZM28.5226 90.92C24.0856 87.716 20.2509 83.6987 17.2409 79.0777L0.482587 89.9938C4.83627 96.6775 10.3832 102.491 16.8138 107.134L28.5226 90.92ZM10.1734 58.5471C10.0942 57.6387 10.0417 56.7212 10.0167 55.795L-9.976 56.3337C-9.94026 57.6601 -9.86492 58.9773 -9.75099 60.2841L10.1734 58.5471ZM10.0167 55.795C9.98492 54.6138 9.99868 53.4439 10.0561 52.287L-9.91928 51.2952C-10.002 52.9614 -10.0216 54.6418 -9.976 56.3337L10.0167 55.795ZM12.8881 38.6737C15.3892 32.0614 19.4123 26.1865 24.5358 21.5026L11.041 6.74145C3.62697 13.5194 -2.19479 22.0182 -5.81836 31.5978L12.8881 38.6737ZM49.4582 10.2466C50.6035 10.1253 51.7642 10.0479 52.9388 10.0162L52.4002 -9.97651C50.7015 -9.93075 49.0182 -9.81859 47.3527 -9.64227L49.4582 10.2466ZM52.9388 10.0162C54.1134 9.98458 55.2766 9.99944 56.4268 10.0588L57.4584 -9.91454C55.7858 -10.0009 54.0988 -10.0223 52.4002 -9.97651L52.9388 10.0162ZM69.9512 12.9541C76.4886 15.4954 82.3087 19.5769 86.9501 24.7851L101.881 11.4788C95.175 3.95352 86.7364 -1.97893 77.1976 -5.68696L69.9512 12.9541ZM98.0354 49.9166C98.155 51.0688 98.2318 52.2362 98.2636 53.4175L118.256 52.8789C118.211 51.1869 118.101 49.5101 117.928 47.8508L98.0354 49.9166ZM98.2636 53.4175C98.2899 54.3961 98.285 55.3668 98.2499 56.3288L118.237 57.0583C118.287 55.674 118.294 54.2804 118.256 52.8789L98.2636 53.4175ZM96.3497 67.7275C94.6425 73.3483 91.8588 78.5103 88.2318 82.9601L103.734 95.5962C108.979 89.162 113.011 81.6893 115.486 73.5401L96.3497 67.7275ZM69.7248 96.3641C68.8304 96.7045 67.922 97.0164 67.0006 97.2986L72.8586 116.421C74.2051 116.009 75.5323 115.553 76.8388 115.056L69.7248 96.3641ZM67.0006 97.2986C67.229 97.2286 67.4602 97.1674 67.6936 97.115L72.0733 116.63C72.3376 116.57 72.5995 116.501 72.8586 116.421L67.0006 97.2986ZM70.5897 96.9249C72.0329 97.0548 73.3373 97.5078 74.4374 98.1454L64.4093 115.45C65.6756 116.183 67.1639 116.698 68.7978 116.844L70.5897 96.9249ZM77.794 101.49C77.8912 101.657 77.9835 101.827 78.0706 102L60.1977 110.976C60.2991 111.178 60.4065 111.376 60.5197 111.57L77.794 101.49ZM78.0706 102C78.1852 102.229 78.2887 102.458 78.3817 102.689L59.8335 110.17C59.9424 110.44 60.0637 110.709 60.1977 110.976L78.0706 102ZM79.0253 105.474C79.1227 106.851 78.9099 108.285 78.339 109.653L59.8828 101.948C59.2141 103.549 58.9593 105.246 59.0751 106.884L79.0253 105.474ZM73.3605 114.646C73.0642 114.771 72.7621 114.881 72.4555 114.975L66.5851 95.8564C66.2367 95.9633 65.8942 96.0881 65.5588 96.2302L73.3605 114.646ZM72.4555 114.975C73.7699 114.572 75.0655 114.126 76.3409 113.64L69.215 94.9523C68.3515 95.2816 67.4746 95.5833 66.5851 95.8564L72.4555 114.975ZM90.7299 105.848C97.3632 101.034 103.009 94.9525 107.332 87.9663L90.325 77.4424C87.367 82.2229 83.5057 86.379 78.9834 89.6606L90.7299 105.848ZM116.738 56.9989C116.787 55.6477 116.794 54.2873 116.757 52.9193L96.7641 53.4579C96.7896 54.4034 96.7849 55.3413 96.751 56.2706L116.738 56.9989ZM52.0168 100.204L52.0166 100.204L37.2805 113.726L37.2807 113.726L52.0168 100.204ZM52.0159 100.203L52.0149 100.202L37.2788 113.724L37.2798 113.725L52.0159 100.203ZM52.0136 100.2L52.0134 100.2L37.2773 113.722L37.2775 113.722L52.0136 100.2ZM52.0134 100.2C52.2698 100.48 52.5138 100.778 52.7426 101.094L36.5383 112.816C36.77 113.137 37.0173 113.439 37.2773 113.722L52.0134 100.2ZM54.5696 105.836C54.8583 108.467 54.078 110.919 52.7136 112.785L36.5691 100.98C35.1863 102.871 34.3967 105.355 34.6889 108.017L54.5696 105.836ZM44.0372 116.835C43.651 116.81 43.2715 116.762 42.9006 116.694L46.5056 97.0218C46.1294 96.9528 45.7447 96.9045 45.3534 96.8787L44.0372 116.835ZM42.9006 116.694C42.4843 116.618 42.0625 116.513 41.6391 116.376L47.7851 97.3441C47.3561 97.2055 46.9282 97.0992 46.5056 97.0218L42.9006 116.694ZM36.7575 112.902C34.9191 110.464 34.4771 107.596 34.9102 105.174L54.5979 108.695C55.0376 106.236 54.5879 103.329 52.7268 100.861L36.7575 112.902ZM43.112 97.1118C43.5604 97.0394 44 97 44.4266 96.9885L44.9653 116.981C45.3984 116.97 45.8441 116.93 46.2985 116.856L43.112 97.1118ZM44.4266 96.9885C44.5682 96.9847 44.7098 96.9839 44.8511 96.9862L44.5355 116.984C44.6786 116.986 44.8219 116.985 44.9653 116.981L44.4266 96.9885ZM46.5409 97.158C47.3798 97.3166 48.192 97.5822 48.9582 97.9461L40.3773 116.012C41.1531 116.38 41.9754 116.649 42.8247 116.81L46.5409 97.158ZM51.7231 99.8973C51.823 99.9972 51.9209 100.099 52.0168 100.204L37.2807 113.726C37.3777 113.832 37.4768 113.935 37.578 114.036L51.7231 99.8973Z" fill="url(#paint0_linear_35_47)" mask="url(#path-11-inside-1_35_47)"/>
<path d="M37.5 32.5L50 48.5V65L50 83L39.5 92.5" stroke="url(#paint1_linear_35_47)" stroke-width="3"/>
<path d="M70 32L59 47.5V64L59 82.5L70 91.5" stroke="url(#paint2_linear_35_47)" stroke-width="3"/>
<path d="M54.5 27.5L54.5 97" stroke="url(#paint3_linear_35_47)" stroke-width="3"/>
<path d="M20 28.4998L36.8338 50.1783L45 43.5" stroke="url(#paint4_linear_35_47)" stroke-width="3"/>
<path d="M87.5 29L70.6039 50.5302L61.5 43.5" stroke="url(#paint5_linear_35_47)" stroke-width="3"/>
<line x1="18" y1="45.5" x2="33" y2="45.5" stroke="url(#paint6_linear_35_47)" stroke-width="3"/>
<line x1="75" y1="45.5" x2="90" y2="45.5" stroke="url(#paint7_linear_35_47)" stroke-width="3"/>
<defs>
<linearGradient id="paint0_linear_35_47" x1="54.1402" y1="0" x2="54.1402" y2="106.985" gradientUnits="userSpaceOnUse">
<stop stop-color="white"/>
<stop offset="1" stop-color="white" stop-opacity="0"/>
</linearGradient>
<linearGradient id="paint1_linear_35_47" x1="44" y1="31.5" x2="44" y2="84" gradientUnits="userSpaceOnUse">
<stop stop-color="#AAE3E4"/>
<stop offset="1" stop-color="#3BBD9E"/>
</linearGradient>
<linearGradient id="paint2_linear_35_47" x1="68" y1="27.5" x2="68.5" y2="100" gradientUnits="userSpaceOnUse">
<stop stop-color="#A2E0DF"/>
<stop offset="1" stop-color="#3BBD9E"/>
</linearGradient>
<linearGradient id="paint3_linear_35_47" x1="54.9999" y1="29" x2="54" y2="95" gradientUnits="userSpaceOnUse">
<stop stop-color="#AAE3E4"/>
<stop offset="1" stop-color="#3BBE9F"/>
</linearGradient>
<linearGradient id="paint4_linear_35_47" x1="16.5" y1="26" x2="52" y2="48.5" gradientUnits="userSpaceOnUse">
<stop stop-color="#AAE3E4"/>
<stop offset="0.0001" stop-color="#3BBD9E"/>
<stop offset="0.947917" stop-color="#97DCD8"/>
</linearGradient>
<linearGradient id="paint5_linear_35_47" x1="88" y1="27" x2="58" y2="50" gradientUnits="userSpaceOnUse">
<stop stop-color="#49C2A7"/>
<stop offset="1" stop-color="#89D8CF"/>
</linearGradient>
<linearGradient id="paint6_linear_35_47" x1="22" y1="47" x2="34.5" y2="47" gradientUnits="userSpaceOnUse">
<stop stop-color="#AAE3E4"/>
<stop offset="1" stop-color="#61CBB7"/>
</linearGradient>
<linearGradient id="paint7_linear_35_47" x1="91.5" y1="45" x2="75" y2="45" gradientUnits="userSpaceOnUse">
<stop stop-color="#AAE3E4"/>
<stop offset="1" stop-color="#6ACDBB"/>
</linearGradient>
</defs>
</svg>
